PathFileType	4	(x/y/z)	S08_PSF_T11
DataRate	CameraRate	NumFrames	NumMarkers	Units	OrigDataRate	OrigDataStartFrame	OrigNumFrames
240	240	10	51	mm	240	166	440
Frame#	Time	Sternum			R.Acromium			L.Acromium			Top.Head			R.ASIS			L.ASIS			R.PSIS			L.PSIS			R.Great.Tro			L.Great.Tro			R.Iliac.Crest			L.Iliac.Crest			V.Sacral			R.Thigh.Upper.Post			R.Thigh.Lower.Ant			R.Thigh.Lower.Post			R.Thigh.Upper.Ant			R.Knee.Lat			R.Knee.Med			R.Shank.Upper.Post			R.Shank.Lower.Ant			R.Shank.Lower.Post			R.Shank.Upper.Ant			R.Ankle.Lat			R.Ankle.Med			R.Heel.Upper			R.Heel.Med			R.Heel.Lat			R.Toe.Lat			R.Toe.Med			R.Toe.Tip			L.Thigh.Upper.Post			L.Thigh.Lower.Ant			L.Thigh.Lower.Post			L.Thigh.Upper.Ant			L.Knee.Lat			L.Knee.Med			L.Shank.Upper.Post			L.Shank.Lower.Ant			L.Shank.Lower.Post			L.Shank.Upper.Ant			L.Ankle.Lat			L.Ankle.Med			L.Heel.Upper			L.Heel.Med			L.Heel.Lat			L.Toe.Lat			L.Toe.Med			L.Toe.Tip			Cervical.Spine			Back			
		X1	Y1	Z1	X2	Y2	Z2	X3	Y3	Z3	X4	Y4	Z4	X5	Y5	Z5	X6	Y6	Z6	X7	Y7	Z7	X8	Y8	Z8	X9	Y9	Z9	X10	Y10	Z10	X11	Y11	Z11	X12	Y12	Z12	X13	Y13	Z13	X14	Y14	Z14	X15	Y15	Z15	X16	Y16	Z16	X17	Y17	Z17	X18	Y18	Z18	X19	Y19	Z19	X20	Y20	Z20	X21	Y21	Z21	X22	Y22	Z22	X23	Y23	Z23	X24	Y24	Z24	X25	Y25	Z25	X26	Y26	Z26	X27	Y27	Z27	X28	Y28	Z28	X29	Y29	Z29	X30	Y30	Z30	X31	Y31	Z31	X32	Y32	Z32	X33	Y33	Z33	X34	Y34	Z34	X35	Y35	Z35	X36	Y36	Z36	X37	Y37	Z37	X38	Y38	Z38	X39	Y39	Z39	X40	Y40	Z40	X41	Y41	Z41	X42	Y42	Z42	X43	Y43	Z43	X44	Y44	Z44	X45	Y45	Z45	X46	Y46	Z46	X47	Y47	Z47	X48	Y48	Z48	X49	Y49	Z49	X50	Y50	Z50	X51	Y51	Z51	

166	0.6875	-584.8	1226.4	326.12	-698.91	1460.4	506.5	-722.61	1490.7	172.65	-718.15	1775.7	355.83	-596.98	1016.2	432.31	-607.06	1008.6	199.62	-804.29	1032.2	365.32	-802.9	1034	272.41	-652.73	909.82	507.57	-708.23	895.27	140.83	-693.1	1081.5	481.83	-704.45	1089.4	174.06	-819.72	992.55	319.82	-632.23	708.92	491.27	-537.67	628.83	452.99	-608.17	623.25	469.8	-555.69	720.3	474.55	-551.62	526.79	442.4	-585.97	526.4	319.91	-603.74	336.14	447.79	-539.19	278.29	421.52	-599.17	259.57	437.84	-543.36	356.23	434.33	-590.77	93.002	394.75	-559.36	115.14	319.01	-634.14	64.4	341.1	-618.63	39.308	313.67	-629.38	38.804	374.71	NaN	NaN	NaN	-434.78	52.151	313.2	-374.39	74.785	362.51	-720.33	687.91	156.01	-629.84	599.38	161.22	-698.76	599.19	166	-648.25	686.09	145.94	-688.21	503.13	174.25	-661.08	489.25	300.12	-843.72	423.37	180.87	-870.18	315.5	191.43	NaN	NaN	NaN	-810.56	367.04	178.37	-1014	249.71	205.32	-990.17	231.98	289.89	-1049.1	289.86	256.46	-1073.3	268.52	290.66	-1075.5	273.8	226.2	-1032.8	101.39	198.95	-1011.1	91.813	311.44	-976.68	39.474	265.47	-779.66	1517.8	336.39	-821.8	1232.5	343.15
167	0.69167	-579.62	1226.9	326.15	-693.12	1461.1	506.74	-717.47	1491.3	172.92	-712.67	1776.3	356.21	-591.76	1016.8	432.73	-602.15	1009.1	200.05	-799.16	1032.8	365.87	-797.94	1034.3	272.94	-647.75	910.32	508.02	-702.79	895.49	141.44	-687.81	1082.2	482.22	-699.55	1089.7	174.5	-814.66	992.98	320.45	-628.61	709.33	491.49	-534.5	628.65	453.29	-605.05	623.52	470.09	-551.94	720.22	474.87	-549.11	526.67	442.56	-583.41	526.55	320.03	-602.36	336.31	447.76	-538.06	278.17	421.62	-598.16	259.72	437.77	-541.84	356.11	434.42	-590.55	93.116	394.65	-559.1	115.15	318.95	-634.08	64.475	341.08	-618.59	39.359	313.66	-629.33	38.901	374.71	NaN	NaN	NaN	-434.7	51.83	313.03	-374.23	74.325	362.3	-711.94	687.84	156.22	-620.4	600.35	161.16	-689.33	599.37	166.09	-639.76	686.88	145.97	-677.42	503.79	174.07	-650.4	489.83	300.18	-832.68	424.78	180.69	-859.89	317.08	191.15	NaN	NaN	NaN	-799.85	368.26	178.2	-1004	252.16	205.04	-980.17	234.34	289.58	-1038.7	292.63	256.16	-1063	271.44	290.43	-1065.4	276.73	225.93	-1023.8	103.79	198.63	-1001.9	94.102	311.01	-967.96	40.779	264.82	-774.19	1518.6	336.85	-816.54	1233.3	343.76
168	0.69583	-574.46	1227.4	326.16	-687.35	1461.8	506.98	-712.36	1491.9	173.18	-707.18	1777	356.57	-586.55	1017.4	433.12	-597.28	1009.6	200.45	-794.05	1033.3	366.43	-793.01	1034.7	273.49	-642.8	910.81	508.46	-697.41	895.75	142.02	-682.53	1082.8	482.62	-694.68	1090.1	174.95	-809.63	993.43	321.1	-625.08	709.74	491.69	-531.42	628.46	453.57	-602.02	623.79	470.37	-548.26	720.14	475.17	-546.7	526.55	442.72	-580.95	526.68	320.14	-601.05	336.49	447.73	-537	278.06	421.73	-597.22	259.88	437.7	-540.41	356	434.52	-590.34	93.229	394.56	-558.86	115.17	318.89	-634.02	64.55	341.06	-618.56	39.405	313.66	-629.28	38.998	374.7	NaN	NaN	NaN	-434.63	51.535	312.87	-374.09	73.893	362.12	-703.55	687.87	156.44	-610.98	601.43	161.12	-679.91	599.65	166.22	-631.28	687.76	146	-666.65	504.56	173.93	-639.81	490.55	300.26	-821.65	426.17	180.51	-849.5	318.63	190.91	NaN	NaN	NaN	-789.08	369.49	178.05	-993.9	254.45	204.79	-970.04	236.57	289.29	-1028.4	295.07	255.9	-1052.7	273.94	290.2	-1055.1	279.27	225.68	-1014.1	106.03	198.28	-992.07	96.252	310.55	-958.48	42.205	264.15	-768.73	1519.3	337.29	-811.29	1234	344.37
169	0.7	-569.31	1227.9	326.17	-681.6	1462.4	507.21	-707.27	1492.5	173.42	-701.68	1777.6	356.9	-581.37	1017.9	433.48	-592.45	1010.1	200.84	-788.97	1033.9	367	-788.1	1035.1	274.05	-637.87	911.29	508.87	-692.06	896.06	142.59	-677.25	1083.4	483.01	-689.83	1090.6	175.4	-804.62	993.89	321.75	-621.62	710.16	491.87	-528.42	628.26	453.84	-599.06	624.06	470.63	-544.65	720.04	475.44	-544.4	526.42	442.87	-578.59	526.81	320.23	-599.83	336.65	447.68	-536	277.97	421.84	-596.34	260.04	437.62	-539.06	355.9	434.61	-590.14	93.342	394.46	-558.63	115.2	318.83	-633.96	64.625	341.03	-618.53	39.449	313.65	-629.24	39.097	374.68	NaN	NaN	NaN	-434.55	51.267	312.72	-373.95	73.484	361.96	-695.15	687.99	156.66	-601.57	602.62	161.11	-670.51	600.03	166.37	-622.81	688.72	146.05	-655.92	505.45	173.83	-629.32	491.42	300.38	-810.63	427.55	180.33	-839.05	320.15	190.69	NaN	NaN	NaN	-778.27	370.75	177.94	-983.65	256.56	204.59	-959.78	238.67	289.02	-1018.1	297.19	255.66	-1042.4	276.03	289.97	-1044.9	281.42	225.44	-1003.9	108.1	197.88	-981.74	98.246	310.08	-948.26	43.721	263.47	-763.28	1520.1	337.72	-806.06	1234.8	344.98
170	0.70417	-564.18	1228.4	326.17	-675.87	1463.1	507.43	-702.2	1493.1	173.65	-696.16	1778.3	357.22	-576.2	1018.5	433.81	-587.65	1010.7	201.19	-783.89	1034.4	367.57	-783.22	1035.5	274.61	-632.97	911.78	509.26	-686.75	896.41	143.14	-671.98	1084.1	483.39	-685.01	1091	175.85	-799.64	994.37	322.41	-618.23	710.58	492.03	-525.49	628.06	454.08	-596.17	624.33	470.88	-541.11	719.94	475.7	-542.21	526.3	443.02	-576.35	526.92	320.32	-598.68	336.81	447.63	-535.07	277.88	421.96	-595.51	260.19	437.54	-537.79	355.8	434.71	-589.95	93.455	394.37	-558.39	115.24	318.77	-633.9	64.701	341	-618.51	39.491	313.65	-629.19	39.196	374.66	NaN	NaN	NaN	-434.47	51.023	312.59	-373.83	73.095	361.82	-686.75	688.2	156.87	-592.18	603.9	161.13	-661.13	600.52	166.54	-614.35	689.76	146.1	-645.23	506.45	173.78	-618.91	492.41	300.52	-799.63	428.91	180.15	-828.54	321.63	190.5	NaN	NaN	NaN	-767.43	372.02	177.85	-973.26	258.48	204.43	-949.38	240.62	288.76	-1007.9	298.98	255.46	-1032.1	277.71	289.76	-1034.6	283.17	225.22	-993.16	109.98	197.45	-970.87	100.07	309.58	-937.33	45.297	262.76	-757.83	1520.8	338.13	-800.84	1235.5	345.59
171	0.70833	-559.07	1228.9	326.17	-670.17	1463.8	507.65	-697.15	1493.7	173.88	-690.64	1779	357.51	-571.04	1019	434.1	-582.87	1011.3	201.53	-778.84	1035	368.15	-778.35	1036	275.18	-628.09	912.27	509.63	-681.48	896.81	143.67	-666.73	1084.7	483.77	-680.2	1091.5	176.29	-794.67	994.88	323.06	-614.9	711	492.18	-522.65	627.85	454.32	-593.34	624.61	471.12	-537.63	719.84	475.94	-540.1	526.18	443.17	-574.2	527.02	320.4	-597.58	336.97	447.59	-534.18	277.8	422.08	-594.74	260.34	437.46	-536.58	355.7	434.81	-589.77	93.569	394.28	-558.17	115.29	318.71	-633.85	64.778	340.97	-618.48	39.532	313.64	-629.15	39.295	374.64	NaN	NaN	NaN	-434.39	50.802	312.47	-373.71	72.723	361.71	-678.36	688.51	157.09	-582.82	605.29	161.18	-651.78	601.1	166.74	-605.92	690.89	146.17	-634.59	507.56	173.76	-608.58	493.54	300.69	-788.65	430.24	179.98	-817.97	323.08	190.33	NaN	NaN	NaN	-756.55	373.29	177.8	-962.74	260.2	204.3	-938.85	242.4	288.53	-997.62	300.44	255.29	-1021.7	278.97	289.54	-1024.3	284.54	225.02	-981.87	111.66	196.98	-959.51	101.71	309.05	-925.73	46.903	262.02	-752.39	1521.6	338.53	-795.64	1236.3	346.2
172	0.7125	-553.96	1229.4	326.16	-664.49	1464.4	507.87	-692.1	1494.3	174.1	-685.1	1779.7	357.78	-565.91	1019.6	434.37	-578.12	1011.9	201.84	-773.8	1035.6	368.73	-773.5	1036.5	275.75	-623.23	912.76	509.98	-676.23	897.26	144.16	-661.49	1085.4	484.15	-675.41	1092	176.73	-789.72	995.41	323.71	-611.63	711.44	492.32	-519.87	627.64	454.54	-590.58	624.88	471.35	-534.21	719.72	476.16	-538.08	526.05	443.31	-572.16	527.12	320.47	-596.55	337.13	447.55	-533.35	277.73	422.21	-594.01	260.49	437.38	-535.44	355.61	434.92	-589.6	93.683	394.19	-557.95	115.34	318.66	-633.79	64.857	340.94	-618.45	39.572	313.63	-629.11	39.395	374.62	NaN	NaN	NaN	-434.32	50.601	312.36	-373.59	72.367	361.61	-669.98	688.9	157.3	-573.49	606.76	161.26	-642.45	601.79	166.96	-597.51	692.09	146.25	-624	508.77	173.79	-598.32	494.77	300.88	-777.71	431.53	179.82	-807.36	324.48	190.19	NaN	NaN	NaN	-745.64	374.57	177.77	-952.08	261.72	204.2	-928.18	244.01	288.31	-987.41	301.57	255.15	-1011.3	279.82	289.33	-1013.9	285.52	224.83	-970.08	113.15	196.46	-947.67	103.16	308.49	-913.48	48.51	261.27	-746.96	1522.3	338.91	-790.45	1237.1	346.8
173	0.71667	-548.88	1229.9	326.15	-658.84	1465.1	508.09	-687.07	1494.9	174.31	-679.56	1780.3	358.04	-560.79	1020.1	434.61	-573.39	1012.5	202.13	-768.77	1036.2	369.3	-768.66	1037	276.32	-618.4	913.25	510.31	-671.01	897.76	144.63	-656.27	1086	484.52	-670.63	1092.6	177.17	-784.79	995.97	324.35	-608.42	711.88	492.46	-517.15	627.43	454.74	-587.87	625.16	471.58	-530.83	719.61	476.36	-536.14	525.94	443.47	-570.21	527.2	320.55	-595.56	337.28	447.51	-532.56	277.67	422.33	-593.31	260.65	437.32	-534.35	355.53	435.02	-589.44	93.799	394.11	-557.73	115.39	318.61	-633.74	64.936	340.9	-618.43	39.613	313.62	-629.08	39.494	374.6	NaN	NaN	NaN	-434.24	50.419	312.27	-373.48	72.025	361.54	-661.61	689.37	157.5	-564.2	608.32	161.36	-633.16	602.56	167.19	-589.13	693.37	146.34	-613.47	510.06	173.86	-588.11	496.12	301.09	-766.8	432.79	179.68	-796.7	325.83	190.07	NaN	NaN	NaN	-734.71	375.84	177.78	-941.29	263.01	204.13	-917.39	245.43	288.11	-977.19	302.36	255.04	-1000.9	280.28	289.12	-1003.4	286.13	224.66	-957.82	114.44	195.91	-935.39	104.4	307.9	-900.65	50.089	260.48	-741.54	1523	339.29	-785.27	1237.8	347.39
174	0.72083	-543.8	1230.4	326.14	-653.21	1465.8	508.3	-682.05	1495.4	174.51	-674	1781	358.27	-555.69	1020.6	434.83	-568.67	1013.2	202.39	-763.74	1036.9	369.86	-763.83	1037.5	276.88	-613.6	913.74	510.61	-665.81	898.3	145.06	-651.07	1086.7	484.89	-665.86	1093.1	177.59	-779.87	996.55	324.98	-605.25	712.32	492.59	-514.49	627.23	454.94	-585.22	625.44	471.81	-527.51	719.48	476.55	-534.28	525.82	443.62	-568.36	527.29	320.62	-594.62	337.43	447.49	-531.8	277.62	422.45	-592.65	260.8	437.26	-533.31	355.45	435.14	-589.29	93.917	394.04	-557.52	115.45	318.56	-633.69	65.017	340.86	-618.4	39.654	313.62	-629.04	39.592	374.58	NaN	NaN	NaN	-434.16	50.255	312.18	-373.37	71.695	361.48	-653.26	689.93	157.69	-554.95	609.97	161.5	-623.9	603.42	167.44	-580.79	694.72	146.45	-602.99	511.44	173.97	-577.96	497.56	301.33	-755.93	433.99	179.57	-785.97	327.1	189.97	NaN	NaN	NaN	-723.76	377.1	177.82	-930.37	264.09	204.08	-906.46	246.63	287.93	-966.95	302.83	254.95	-990.35	280.35	288.92	-992.93	286.37	224.5	-945.13	115.51	195.31	-922.69	105.43	307.28	-887.29	51.616	259.66	-736.12	1523.8	339.65	-780.1	1238.6	347.98
175	0.725	-538.74	1230.9	326.13	-647.6	1466.4	508.51	-677.03	1496	174.71	-668.44	1781.7	358.49	-550.61	1021.2	435.02	-563.95	1013.9	202.64	-758.73	1037.5	370.41	-759	1038.1	277.42	-608.82	914.23	510.9	-660.61	898.89	145.46	-645.91	1087.4	485.25	-661.09	1093.7	178.01	-774.95	997.15	325.58	-602.11	712.77	492.72	-511.88	627.02	455.13	-582.61	625.73	472.04	-524.23	719.35	476.73	-532.48	525.71	443.77	-566.6	527.37	320.7	-593.72	337.57	447.48	-531.08	277.58	422.57	-592.03	260.95	437.21	-532.31	355.38	435.25	-589.14	94.036	393.96	-557.31	115.51	318.52	-633.64	65.097	340.83	-618.38	39.697	313.61	-629.01	39.688	374.56	NaN	NaN	NaN	-434.08	50.105	312.1	-373.25	71.375	361.44	-644.93	690.55	157.88	-545.74	611.69	161.67	-614.67	604.36	167.69	-572.49	696.13	146.58	-592.57	512.9	174.12	-567.85	499.1	301.59	-745.1	435.13	179.47	-775.15	328.28	189.91	NaN	NaN	NaN	-712.79	378.33	177.88	-919.32	264.94	204.05	-895.4	247.63	287.76	-956.67	302.97	254.89	-979.76	280.04	288.72	-982.34	286.25	224.35	-932.04	116.39	194.67	-909.62	106.25	306.63	-873.43	53.07	258.81	-730.71	1524.5	340	-774.95	1239.4	348.56
